<svg width="99" height="30" viewBox="0 0 99 30" fill="none" xmlns="http://www.w3.org/2000/svg">
<path d="M48.4 9.16V24H45.42V22.76C44.6467 23.6933 43.5267 24.16 42.06 24.16C41.0467 24.16 40.1267 23.9333 39.3 23.48C38.4867 23.0267 37.8467 22.38 37.38 21.54C36.9133 20.7 36.68 19.7267 36.68 18.62C36.68 17.5133 36.9133 16.54 37.38 15.7C37.8467 14.86 38.4867 14.2133 39.3 13.76C40.1267 13.3067 41.0467 13.08 42.06 13.08C43.4333 13.08 44.5067 13.5133 45.28 14.38V9.16H48.4ZM42.6 21.6C43.3867 21.6 44.04 21.3333 44.56 20.8C45.08 20.2533 45.34 19.5267 45.34 18.62C45.34 17.7133 45.08 16.9933 44.56 16.46C44.04 15.9133 43.3867 15.64 42.6 15.64C41.8 15.64 41.14 15.9133 40.62 16.46C40.1 16.9933 39.84 17.7133 39.84 18.62C39.84 19.5267 40.1 20.2533 40.62 20.8C41.14 21.3333 41.8 21.6 42.6 21.6ZM56.4077 24.16C55.2743 24.16 54.2543 23.9267 53.3477 23.46C52.4543 22.98 51.7543 22.32 51.2477 21.48C50.741 20.64 50.4877 19.6867 50.4877 18.62C50.4877 17.5533 50.741 16.6 51.2477 15.76C51.7543 14.92 52.4543 14.2667 53.3477 13.8C54.2543 13.32 55.2743 13.08 56.4077 13.08C57.541 13.08 58.5543 13.32 59.4477 13.8C60.341 14.2667 61.041 14.92 61.5477 15.76C62.0543 16.6 62.3077 17.5533 62.3077 18.62C62.3077 19.6867 62.0543 20.64 61.5477 21.48C61.041 22.32 60.341 22.98 59.4477 23.46C58.5543 23.9267 57.541 24.16 56.4077 24.16ZM56.4077 21.6C57.2077 21.6 57.861 21.3333 58.3677 20.8C58.8877 20.2533 59.1477 19.5267 59.1477 18.62C59.1477 17.7133 58.8877 16.9933 58.3677 16.46C57.861 15.9133 57.2077 15.64 56.4077 15.64C55.6077 15.64 54.9477 15.9133 54.4277 16.46C53.9077 16.9933 53.6477 17.7133 53.6477 18.62C53.6477 19.5267 53.9077 20.2533 54.4277 20.8C54.9477 21.3333 55.6077 21.6 56.4077 21.6ZM69.8131 21.66C70.3731 21.66 70.8665 21.58 71.2931 21.42C71.7331 21.2467 72.1398 20.98 72.5131 20.62L74.1731 22.42C73.1598 23.58 71.6798 24.16 69.7331 24.16C68.5198 24.16 67.4465 23.9267 66.5131 23.46C65.5798 22.98 64.8598 22.32 64.3531 21.48C63.8465 20.64 63.5931 19.6867 63.5931 18.62C63.5931 17.5667 63.8398 16.62 64.3331 15.78C64.8398 14.9267 65.5265 14.2667 66.3931 13.8C67.2731 13.32 68.2598 13.08 69.3531 13.08C70.3798 13.08 71.3131 13.3 72.1531 13.74C72.9931 14.1667 73.6598 14.7933 74.1531 15.62C74.6598 16.4333 74.9131 17.4 74.9131 18.52L66.9531 20.06C67.1798 20.5933 67.5331 20.9933 68.0131 21.26C68.5065 21.5267 69.1065 21.66 69.8131 21.66ZM69.3531 15.44C68.5665 15.44 67.9265 15.6933 67.4331 16.2C66.9398 16.7067 66.6798 17.4067 66.6531 18.3L71.8931 17.28C71.7465 16.72 71.4465 16.2733 70.9931 15.94C70.5398 15.6067 69.9931 15.44 69.3531 15.44ZM82.4303 21.66C82.9903 21.66 83.4836 21.58 83.9103 21.42C84.3503 21.2467 84.757 20.98 85.1303 20.62L86.7903 22.42C85.777 23.58 84.297 24.16 82.3503 24.16C81.137 24.16 80.0636 23.9267 79.1303 23.46C78.197 22.98 77.477 22.32 76.9703 21.48C76.4636 20.64 76.2103 19.6867 76.2103 18.62C76.2103 17.5667 76.457 16.62 76.9503 15.78C77.457 14.9267 78.1436 14.2667 79.0103 13.8C79.8903 13.32 80.877 13.08 81.9703 13.08C82.997 13.08 83.9303 13.3 84.7703 13.74C85.6103 14.1667 86.277 14.7933 86.7703 15.62C87.277 16.4333 87.5303 17.4 87.5303 18.52L79.5703 20.06C79.797 20.5933 80.1503 20.9933 80.6303 21.26C81.1236 21.5267 81.7236 21.66 82.4303 21.66ZM81.9703 15.44C81.1836 15.44 80.5436 15.6933 80.0503 16.2C79.557 16.7067 79.297 17.4067 79.2703 18.3L84.5103 17.28C84.3636 16.72 84.0636 16.2733 83.6103 15.94C83.157 15.6067 82.6103 15.44 81.9703 15.44ZM96.1075 23.48C95.8008 23.7067 95.4208 23.88 94.9675 24C94.5275 24.1067 94.0675 24.16 93.5875 24.16C92.2942 24.16 91.3008 23.8333 90.6075 23.18C89.9142 22.5267 89.5675 21.5667 89.5675 20.3V10.86H92.6875V13.48H95.3475V15.88H92.6875V20.26C92.6875 20.7133 92.8008 21.0667 93.0275 21.32C93.2542 21.56 93.5808 21.68 94.0075 21.68C94.4875 21.68 94.9142 21.5467 95.2875 21.28L96.1075 23.48Z" fill="#0E9DF0"/>
<rect width="30" height="30" rx="15" fill="#0E9DF0"/>
<rect x="14.8713" y="20.8466" width="4.28655" height="10.3144" rx="2.14328" transform="rotate(140.468 14.8713 20.8466)" fill="white"/>
<rect x="12.0271" y="23.6902" width="4.28655" height="18.9286" rx="2.14327" transform="rotate(-136.554 12.0271 23.6902)" fill="white"/>
</svg>
